# 3ds Max Wavefront OBJ Exporter v0.97b - (c)2007 guruware
# File Created: 05.10.2019 16:00:17

mtllib rock tile.mtl

#
# object lantai_batu
#

v  -12769.5049 -2764.6125 -430.7886
v  -7145.5200 -2764.6125 -2608.5869
v  -7145.5200 -2510.1125 -2608.5869
v  -12769.5049 -2510.1125 -430.7886
v  -6738.7891 -2764.6125 -2802.3101
v  -6738.7891 -2510.1125 -2802.3101
v  -6370.5176 -2764.6125 -3050.9775
v  -6370.5176 -2510.1125 -3050.9775
v  -6045.3447 -2764.6125 -3348.8838
v  -6045.3447 -2510.1125 -3348.8838
v  -5767.9082 -2764.6125 -3690.3174
v  -5767.9082 -2510.1125 -3690.3174
v  -5542.8477 -2764.6125 -4069.5698
v  -5542.8477 -2510.1125 -4069.5698
v  -5374.8003 -2764.6125 -4480.9336
v  -5374.8003 -2510.1125 -4480.9336
v  -5268.4063 -2764.6125 -4918.6992
v  -5268.4063 -2510.1125 -4918.6992
v  -5086.1719 -2764.6125 -6024.2544
v  -5086.1719 -2510.1125 -6024.2544
v  -5086.1719 -2764.6125 -7665.4546
v  -5086.1719 -2510.1125 -7665.4546
v  -5081.2344 -2764.6125 -7745.0088
v  -5081.2344 -2510.1125 -7745.0088
v  -5066.6714 -2764.6125 -7822.6138
v  -5066.6714 -2510.1125 -7822.6138
v  -5042.8569 -2764.6125 -7897.4536
v  -5042.8569 -2510.1125 -7897.4536
v  -5010.1641 -2764.6125 -7968.7134
v  -5010.1641 -2510.1125 -7968.7134
v  -4968.9678 -2764.6125 -8035.5786
v  -4968.9678 -2510.1125 -8035.5786
v  -4919.6416 -2764.6125 -8097.2349
v  -4919.6416 -2510.1125 -8097.2349
v  -4862.5586 -2764.6125 -8152.8657
v  -4862.5586 -2510.1125 -8152.8657
v  -3877.5823 -2764.6125 -9000.4043
v  -3877.5823 -2510.1125 -9000.4043
v  -3846.2402 -2764.6125 -9028.7061
v  -3846.2402 -2510.1125 -9028.7061
v  -3816.3303 -2764.6125 -9058.4326
v  -3816.3303 -2510.1125 -9058.4326
v  -3787.8992 -2764.6125 -9089.5273
v  -3787.8992 -2510.1125 -9089.5273
v  -3760.9927 -2764.6125 -9121.9346
v  -3760.9927 -2510.1125 -9121.9346
v  -3735.6572 -2764.6125 -9155.5986
v  -3735.6572 -2510.1125 -9155.5986
v  -3711.9380 -2764.6125 -9190.4648
v  -3711.9380 -2510.1125 -9190.4648
v  -3689.8823 -2764.6125 -9226.4775
v  -3689.8823 -2510.1125 -9226.4775
v  -2948.1279 -2764.6125 -10505.3643
v  -2948.1279 -2510.1125 -10505.3643
v  -2929.4666 -2764.6125 -10541.7988
v  -2929.4666 -2510.1125 -10541.7988
v  -2914.7930 -2764.6125 -10579.7188
v  -2914.7930 -2510.1125 -10579.7188
v  -2904.1616 -2764.6125 -10618.8008
v  -2904.1616 -2510.1125 -10618.8008
v  -2897.6250 -2764.6125 -10658.7207
v  -2897.6250 -2510.1125 -10658.7207
v  -2895.2354 -2764.6125 -10699.1523
v  -2895.2354 -2510.1125 -10699.1523
v  -2897.0469 -2764.6125 -10739.7734
v  -2897.0469 -2510.1125 -10739.7734
v  -2903.1125 -2764.6125 -10780.2559
v  -2903.1125 -2510.1125 -10780.2559
v  -3188.2844 -2764.6125 -12180.1885
v  -3188.2844 -2510.1125 -12180.1885
v  -3195.8311 -2764.6125 -12211.9648
v  -3195.8311 -2510.1125 -12211.9648
v  -3205.3823 -2764.6125 -12243.1094
v  -3205.3823 -2510.1125 -12243.1094
v  -3216.8960 -2764.6125 -12273.5273
v  -3216.8960 -2510.1125 -12273.5273
v  -3230.3303 -2764.6125 -12303.1318
v  -3230.3303 -2510.1125 -12303.1318
v  -3245.6436 -2764.6125 -12331.8262
v  -3245.6436 -2510.1125 -12331.8262
v  -3262.7935 -2764.6125 -12359.5225
v  -3262.7935 -2510.1125 -12359.5225
v  -3281.7393 -2764.6125 -12386.1250
v  -3281.7393 -2510.1125 -12386.1250
v  -4084.6055 -2764.6125 -13439.8848
v  -4084.6055 -2510.1125 -13439.8848
v  -4116.8657 -2764.6125 -13480.0664
v  -4116.8657 -2510.1125 -13480.0664
v  -4151.0684 -2764.6125 -13518.4980
v  -4151.0684 -2510.1125 -13518.4980
v  -4187.1416 -2764.6125 -13555.1094
v  -4187.1416 -2510.1125 -13555.1094
v  -4225.0103 -2764.6125 -13589.8369
v  -4225.0103 -2510.1125 -13589.8369
v  -4264.6021 -2764.6125 -13622.6113
v  -4264.6021 -2510.1125 -13622.6113
v  -4305.8438 -2764.6125 -13653.3672
v  -4305.8438 -2510.1125 -13653.3672
v  -4348.6621 -2764.6125 -13682.0342
v  -4348.6621 -2510.1125 -13682.0342
v  -6038.9048 -2764.6125 -14752.5205
v  -6038.9048 -2510.1125 -14752.5205
v  -13384.1709 -2764.6125 -10511.3213
v  -13384.1709 -2510.1125 -10511.3213
v  -13169.0381 -2764.6125 -861.0552
v  -13169.0381 -2510.1125 -861.0552
# 106 vertices

vn -0.2246 0.0000 0.9745
vn 0.3958 0.0000 0.9183
vn 0.2832 0.6988 0.6569
vn -0.1797 0.5999 0.7796
vn 0.4962 0.0000 0.8682
vn 0.3588 0.6907 0.6279
vn 0.6192 0.0000 0.7852
vn 0.4477 0.6909 0.5677
vn 0.7278 0.0000 0.6858
vn 0.5261 0.6910 0.4958
vn 0.8202 0.0000 0.5720
vn 0.5929 0.6910 0.4135
vn 0.8953 0.0000 0.4455
vn 0.6473 0.6909 0.3221
vn 0.9514 0.0000 0.3080
vn 0.6880 0.6907 0.2228
vn 0.9799 0.0000 0.1995
vn 0.7010 0.6988 0.1427
vn 0.9967 0.0000 0.0816
vn 0.7222 0.6892 0.0591
vn 0.9995 0.0000 0.0310
vn 0.7136 -0.7002 0.0221
vn 0.9924 0.0000 0.1234
vn 0.7150 -0.6935 0.0889
vn 0.9697 0.0000 0.2443
vn 0.6986 -0.6936 0.1760
vn 0.9327 0.0000 0.3608
vn 0.6718 -0.6936 0.2599
vn 0.8818 0.0000 0.4716
vn 0.6352 -0.6936 0.3397
vn 0.8177 0.0000 0.5757
vn 0.5890 -0.6936 0.4147
vn 0.7408 0.0000 0.6717
vn 0.5337 -0.6935 0.4840
vn 0.6754 0.0000 0.7374
vn 0.4822 -0.7002 0.5265
vn 0.6613 0.0000 0.7501
vn 0.4694 0.7044 0.5324
vn 0.6878 0.0000 0.7259
vn 0.4900 0.7018 0.5172
vn 0.7217 0.0000 0.6922
vn 0.5141 0.7018 0.4932
vn 0.7539 0.0000 0.6570
vn 0.5371 0.7018 0.4680
vn 0.7844 0.0000 0.6202
vn 0.5588 0.7018 0.4418
vn 0.8131 0.0000 0.5821
vn 0.5793 0.7018 0.4146
vn 0.8400 0.0000 0.5425
vn 0.5985 0.7018 0.3865
vn 0.8590 0.0000 0.5120
vn 0.6097 0.7044 0.3634
vn 0.8778 0.0000 0.4790
vn 0.6258 0.7013 0.3414
vn 0.9126 0.0000 0.4089
vn 0.6556 0.6956 0.2938
vn 0.9500 0.0000 0.3121
vn 0.6824 0.6957 0.2242
vn 0.9772 0.0000 0.2123
vn 0.7019 0.6957 0.1525
vn 0.9939 0.0000 0.1104
vn 0.7140 0.6957 0.0793
vn 1.0000 0.0000 0.0072
vn 0.7184 0.6956 0.0052
vn 0.9953 0.0000 -0.0965
vn 0.7151 0.6956 -0.0693
vn 0.9848 0.0000 -0.1740
vn 0.7020 0.7013 -0.1240
vn 0.9765 0.0000 -0.2154
vn 0.6940 0.7035 -0.1531
vn 0.9650 0.0000 -0.2623
vn 0.6892 0.6999 -0.1873
vn 0.9461 0.0000 -0.3238
vn 0.6757 0.6999 -0.2312
vn 0.9234 0.0000 -0.3838
vn 0.6595 0.7000 -0.2741
vn 0.8969 0.0000 -0.4423
vn 0.6405 0.7000 -0.3159
vn 0.8667 0.0000 -0.4989
vn 0.6189 0.7000 -0.3563
vn 0.8328 0.0000 -0.5536
vn 0.5947 0.7000 -0.3953
vn 0.8051 0.0000 -0.5932
vn 0.5721 0.7035 -0.4215
vn 0.7877 0.0000 -0.6161
vn 0.5592 0.7043 -0.4374
vn 0.7636 0.0000 -0.6456
vn 0.5442 0.7015 -0.4601
vn 0.7299 0.0000 -0.6835
vn 0.5202 0.7014 -0.4872
vn 0.6943 0.0000 -0.7197
vn 0.4949 0.7014 -0.5129
vn 0.6570 0.0000 -0.7539
vn 0.4682 0.7015 -0.5373
vn 0.6179 0.0000 -0.7862
vn 0.4404 0.7015 -0.5603
vn 0.5773 0.0000 -0.8166
vn 0.4114 0.7014 -0.5820
vn 0.5457 0.0000 -0.8380
vn 0.3874 0.7043 -0.5949
vn 0.0205 0.0000 -0.9998
vn 0.0163 0.6071 -0.7945
vn -0.8716 0.0000 -0.4903
vn -0.6917 0.6084 -0.3891
vn -0.9267 0.0000 0.3759
vn -0.7157 0.6352 0.2903
# 106 vertex normals

vt 0.0183 0.0005 0.0000
vt 0.0183 0.3928 0.0000
vt 0.0005 0.3928 0.0000
vt 0.0005 0.0005 0.0000
vt 0.0183 0.4212 0.0000
vt 0.0005 0.4212 0.0000
vt 0.0183 0.4469 0.0000
vt 0.0005 0.4469 0.0000
vt 0.0183 0.4695 0.0000
vt 0.0005 0.4695 0.0000
vt 0.0403 0.0005 0.0000
vt 0.0403 0.0243 0.0000
vt 0.0226 0.0243 0.0000
vt 0.0226 0.0005 0.0000
vt 0.0403 0.0508 0.0000
vt 0.0226 0.0508 0.0000
vt 0.0403 0.0795 0.0000
vt 0.0226 0.0795 0.0000
vt 0.0403 0.1100 0.0000
vt 0.0226 0.1100 0.0000
vt 0.0403 0.1871 0.0000
vt 0.0226 0.1871 0.0000
vt 0.0403 0.3016 0.0000
vt 0.0226 0.3016 0.0000
vt 0.0403 0.3071 0.0000
vt 0.0226 0.3071 0.0000
vt 0.0403 0.3126 0.0000
vt 0.0226 0.3126 0.0000
vt 0.0403 0.3178 0.0000
vt 0.0226 0.3178 0.0000
vt 0.0403 0.3228 0.0000
vt 0.0226 0.3228 0.0000
vt 0.0403 0.3274 0.0000
vt 0.0226 0.3274 0.0000
vt 0.0403 0.3317 0.0000
vt 0.0226 0.3317 0.0000
vt 0.0446 0.0005 0.0000
vt 0.0502 0.0005 0.0000
vt 0.0502 0.0183 0.0000
vt 0.0446 0.0183 0.0000
vt 0.1406 0.0005 0.0000
vt 0.1406 0.0183 0.0000
vt 0.1436 0.0005 0.0000
vt 0.1436 0.0183 0.0000
vt 0.1465 0.0005 0.0000
vt 0.1465 0.0183 0.0000
vt 0.1495 0.0005 0.0000
vt 0.1495 0.0183 0.0000
vt 0.1524 0.0005 0.0000
vt 0.1524 0.0183 0.0000
vt 0.1553 0.0005 0.0000
vt 0.1553 0.0183 0.0000
vt 0.1582 0.0005 0.0000
vt 0.1582 0.0183 0.0000
vt 0.1610 0.0005 0.0000
vt 0.1610 0.0183 0.0000
vt 0.2603 0.0005 0.0000
vt 0.2603 0.0183 0.0000
vt 0.2630 0.0005 0.0000
vt 0.2630 0.0183 0.0000
vt 0.2656 0.0005 0.0000
vt 0.2656 0.0183 0.0000
vt 0.2681 0.0005 0.0000
vt 0.2681 0.0183 0.0000
vt 0.2703 0.0005 0.0000
vt 0.2703 0.0183 0.0000
vt 0.2724 0.0005 0.0000
vt 0.2724 0.0183 0.0000
vt 0.0446 0.0314 0.0000
vt 0.0475 0.0314 0.0000
vt 0.0475 0.0491 0.0000
vt 0.0446 0.0491 0.0000
vt 0.0503 0.0314 0.0000
vt 0.0503 0.0491 0.0000
vt 0.1487 0.0314 0.0000
vt 0.1487 0.0491 0.0000
vt 0.1510 0.0314 0.0000
vt 0.1510 0.0491 0.0000
vt 0.1532 0.0314 0.0000
vt 0.1532 0.0491 0.0000
vt 0.1553 0.0314 0.0000
vt 0.1553 0.0491 0.0000
vt 0.1574 0.0314 0.0000
vt 0.1574 0.0491 0.0000
vt 0.1595 0.0314 0.0000
vt 0.1595 0.0491 0.0000
vt 0.1615 0.0314 0.0000
vt 0.1615 0.0491 0.0000
vt 0.1634 0.0314 0.0000
vt 0.1634 0.0491 0.0000
vt 0.2393 0.0314 0.0000
vt 0.2393 0.0491 0.0000
vt 0.2422 0.0314 0.0000
vt 0.2422 0.0491 0.0000
vt 0.2450 0.0314 0.0000
vt 0.2450 0.0491 0.0000
vt 0.2477 0.0314 0.0000
vt 0.2477 0.0491 0.0000
vt 0.0005 0.9446 0.0000
vt 0.0031 0.9446 0.0000
vt 0.0031 0.9624 0.0000
vt 0.0005 0.9624 0.0000
vt 0.0059 0.9446 0.0000
vt 0.0059 0.9624 0.0000
vt 0.0088 0.9446 0.0000
vt 0.0088 0.9624 0.0000
vt 0.0118 0.9446 0.0000
vt 0.0118 0.9624 0.0000
vt 0.1297 0.9446 0.0000
vt 0.1297 0.9624 0.0000
vt 0.6420 0.9446 0.0000
vt 0.6420 0.9624 0.0000
vt 0.0005 0.9755 0.0000
vt 0.6736 0.9755 0.0000
vt 0.6736 0.9933 0.0000
vt 0.0005 0.9933 0.0000
vt 0.7037 0.9755 0.0000
vt 0.7037 0.9933 0.0000
vt 0.8476 0.4357 0.0000
vt 0.8341 0.4640 0.0000
vt 0.8167 0.4897 0.0000
vt 0.7960 0.5124 0.0000
vt 0.7721 0.5318 0.0000
vt 0.7457 0.5475 0.0000
vt 0.7170 0.5592 0.0000
vt 0.6864 0.5666 0.0000
vt 0.6093 0.5793 0.0000
vt 0.4949 0.5793 0.0000
vt 0.4893 0.5797 0.0000
vt 0.4839 0.5807 0.0000
vt 0.4787 0.5823 0.0000
vt 0.4737 0.5846 0.0000
vt 0.4690 0.5875 0.0000
vt 0.4647 0.5909 0.0000
vt 0.4609 0.5949 0.0000
vt 0.4017 0.6636 0.0000
vt 0.3998 0.6658 0.0000
vt 0.3977 0.6679 0.0000
vt 0.3955 0.6699 0.0000
vt 0.3933 0.6718 0.0000
vt 0.3909 0.6735 0.0000
vt 0.3885 0.6752 0.0000
vt 0.3860 0.6767 0.0000
vt 0.2968 0.7285 0.0000
vt 0.2942 0.7298 0.0000
vt 0.2916 0.7308 0.0000
vt 0.2888 0.7315 0.0000
vt 0.2861 0.7320 0.0000
vt 0.2832 0.7321 0.0000
vt 0.2804 0.7320 0.0000
vt 0.2776 0.7316 0.0000
vt 0.1799 0.7117 0.0000
vt 0.1777 0.7112 0.0000
vt 0.1755 0.7105 0.0000
vt 0.1734 0.7097 0.0000
vt 0.1714 0.7088 0.0000
vt 0.1694 0.7077 0.0000
vt 0.1674 0.7065 0.0000
vt 0.1656 0.7052 0.0000
vt 0.0921 0.6492 0.0000
vt 0.0893 0.6469 0.0000
vt 0.0866 0.6445 0.0000
vt 0.0840 0.6420 0.0000
vt 0.0816 0.6394 0.0000
vt 0.0793 0.6366 0.0000
vt 0.0772 0.6338 0.0000
vt 0.0752 0.6308 0.0000
vt 0.0005 0.5129 0.0000
vt 0.2963 0.0005 0.0000
vt 0.9695 0.0155 0.0000
vt 0.9995 0.0434 0.0000
# 171 texture coords

o lantai_batu
g lantai_batu
usemtl 07___Default
s 1
f 1/1/1 2/2/2 3/3/3 4/4/4 
s 3
f 2/2/2 5/5/5 6/6/6 3/3/3 
s 2
f 5/5/5 7/7/7 8/8/8 6/6/6 
f 7/7/7 9/9/9 10/10/10 8/8/8 
f 9/11/9 11/12/11 12/13/12 10/14/10 
f 11/12/11 13/15/13 14/16/14 12/13/12 
f 13/15/13 15/17/15 16/18/16 14/16/14 
f 15/17/15 17/19/17 18/20/18 16/18/16 
f 17/19/17 19/21/19 20/22/20 18/20/18 
s 4
f 19/21/19 21/23/21 22/24/22 20/22/20 
f 21/23/21 23/25/23 24/26/24 22/24/22 
f 23/25/23 25/27/25 26/28/26 24/26/24 
f 25/27/25 27/29/27 28/30/28 26/28/26 
f 27/29/27 29/31/29 30/32/30 28/30/28 
f 29/31/29 31/33/31 32/34/32 30/32/30 
f 31/33/31 33/35/33 34/36/34 32/34/32 
f 33/37/33 35/38/35 36/39/36 34/40/34 
f 35/38/35 37/41/37 38/42/38 36/39/36 
f 37/41/37 39/43/39 40/44/40 38/42/38 
f 39/43/39 41/45/41 42/46/42 40/44/40 
f 41/45/41 43/47/43 44/48/44 42/46/42 
f 43/47/43 45/49/45 46/50/46 44/48/44 
f 45/49/45 47/51/47 48/52/48 46/50/46 
f 47/51/47 49/53/49 50/54/50 48/52/48 
f 49/53/49 51/55/51 52/56/52 50/54/50 
f 51/55/51 53/57/53 54/58/54 52/56/52 
f 53/57/53 55/59/55 56/60/56 54/58/54 
f 55/59/55 57/61/57 58/62/58 56/60/56 
f 57/61/57 59/63/59 60/64/60 58/62/58 
f 59/63/59 61/65/61 62/66/62 60/64/60 
f 61/65/61 63/67/63 64/68/64 62/66/62 
f 63/69/63 65/70/65 66/71/66 64/72/64 
f 65/70/65 67/73/67 68/74/68 66/71/66 
f 67/73/67 69/75/69 70/76/70 68/74/68 
f 69/75/69 71/77/71 72/78/72 70/76/70 
f 71/77/71 73/79/73 74/80/74 72/78/72 
f 73/79/73 75/81/75 76/82/76 74/80/74 
f 75/81/75 77/83/77 78/84/78 76/82/76 
f 77/83/77 79/85/79 80/86/80 78/84/78 
f 79/85/79 81/87/81 82/88/82 80/86/80 
f 81/87/81 83/89/83 84/90/84 82/88/82 
f 83/89/83 85/91/85 86/92/86 84/90/84 
f 85/91/85 87/93/87 88/94/88 86/92/86 
f 87/93/87 89/95/89 90/96/90 88/94/88 
f 89/95/89 91/97/91 92/98/92 90/96/90 
f 91/99/91 93/100/93 94/101/94 92/102/92 
f 93/100/93 95/103/95 96/104/96 94/101/94 
f 95/103/95 97/105/97 98/106/98 96/104/96 
f 97/105/97 99/107/99 100/108/100 98/106/98 
f 99/107/99 101/109/101 102/110/102 100/108/100 
s 2
f 101/109/101 103/111/103 104/112/104 102/110/102 
s 4
f 103/113/103 105/114/105 106/115/106 104/116/104 
s 2
f 106/115/106 105/114/105 1/117/1 4/118/4 
s off
f 3/119/3 6/120/6 8/121/8 10/122/10 12/123/12 14/124/14 16/125/16 18/126/18 20/127/20 22/128/22 24/129/24 26/130/26 28/131/28 30/132/30 32/133/32 34/134/34 36/135/36 38/136/38 40/137/40 42/138/42 44/139/44 46/140/46 48/141/48 50/142/50 52/143/52 54/144/54 56/145/56 58/146/58 60/147/60 62/148/62 64/149/64 66/150/66 68/151/68 70/152/70 72/153/72 74/154/74 76/155/76 78/156/78 80/157/80 82/158/82 84/159/84 86/160/86 88/161/88 90/162/90 92/163/92 94/164/94 96/165/96 98/166/98 100/167/100 102/168/102 104/169/104 106/170/106 4/171/4 
# 54 polygons

